Coordinates
version=1
nRows=9
nColumns=24
inDegrees=yes

Units are S.I. units (second, meters, Newtons, ...)
Angles are in degrees.

endheader
time	pelvis_tilt	pelvis_list	pelvis_rotation	pelvis_tx	pelvis_ty	pelvis_tz	hip_flexion_r	hip_adduction_r	hip_rotation_r	knee_angle_r	ankle_angle_r	subtalar_angle_r	mtp_angle_r	hip_flexion_l	hip_adduction_l	hip_rotation_l	knee_angle_l	ankle_angle_l	subtalar_angle_l	mtp_angle_l	lumbar_extension	lumbar_bending	lumbar_rotation
      4.99000000	     -3.14120051	     -7.29332341	     -3.34678231	      1.79684692	      0.67792643	     -0.13330455	    -17.26742021	      9.58100995	     14.70431120	    -14.48771031	     16.34444417	     -2.00189268	      0.00000000	     23.43067274	     -7.47305554	     16.56727065	      4.23254551	      1.03787595	    -24.62358870	      0.00000000	    -14.62147587	      6.25277374	      4.69035422
      5.00000000	     -2.79961312	     -6.07380492	     -3.25404113	      1.81277195	      0.67730202	     -0.13557172	    -17.05951114	      8.22186890	     12.91374846	    -17.63740894	     15.61078963	     -0.40767219	      0.00000000	     23.75361548	     -5.48162103	     17.65936829	      1.31921058	     -0.54460480	    -26.15845250	      0.00000000	    -14.63199895	      4.73263115	      4.08661875
      5.01000000	     -2.37949294	     -4.56220520	     -3.08483755	      1.82874806	      0.67703435	     -0.13806274	    -16.57212591	      6.58525535	     11.07877938	    -21.31674682	     14.30367411	      0.75583752	      0.00000000	     24.16645159	     -2.97899069	     18.20327562	     -2.23418623	     -2.01508947	    -26.97433998	      0.00000000	    -14.71828197	      2.88624609	      3.41277765
      5.02000000	     -1.90558263	     -2.86227481	     -2.92325441	      1.84466746	      0.67706027	     -0.14046143	    -15.77169772	      4.78655832	      9.39654840	    -25.50576215	     12.28585677	      1.24146127	      0.00000000	     24.56056464	     -0.23877816	     18.11478660	     -6.03068609	     -3.22333123	    -26.94817565	      0.00000000	    -14.88847252	      0.78423092	      2.64675355
      5.03000000	     -1.41807782	     -1.23144579	     -2.65652271	      1.86011523	      0.67709949	     -0.14314848	    -14.53862273	      3.01417163	      7.48464117	    -30.24522998	      9.89388254	      1.74278605	      0.00000000	     25.07195462	      2.49463350	     17.40207306	    -10.02759539	     -3.66677094	    -25.98744671	      0.00000000	    -15.20659966	     -1.14978095	      1.95366412
      5.04000000	     -1.24241040	      0.21583873	     -2.43866833	      1.87516010	      0.67686281	     -0.14530006	    -12.70537105	      1.57577808	      6.35392460	    -35.18832223	      6.87412465	      1.19530618	      0.00000000	     25.98784719	      4.83073244	     15.55628263	    -14.05968469	     -2.74378469	    -23.39412847	      0.00000000	    -15.20966998	     -2.91858376	      1.24887256
      5.05000000	     -1.16237930	      1.59456248	     -2.32983180	      1.89001744	      0.67664332	     -0.14699885	    -10.52987030	      0.24364210	      5.59740338	    -40.19536177	      3.69263376	      0.18295365	      0.00000000	     26.64707117	      6.81846374	     13.89394372	    -17.44141833	     -1.56214853	    -21.10892507	      0.00000000	    -15.08028996	     -4.67487931	      0.87410130
      5.06000000	     -1.26334835	      2.76104783	     -2.25883812	      1.90432460	      0.67639236	     -0.14847851	     -7.92906589	     -0.80186931	      5.20252996	    -45.16112045	      0.76415372	     -0.98373344	      0.00000000	     27.21725546	      8.39361945	     12.19996138	    -20.23110994	     -0.09330669	    -19.15613739	      0.00000000	    -14.83687355	     -6.13834170	      0.42381940
      5.07000000	     -1.33948753	      3.97827319	     -2.37045737	      1.91841885	      0.67645718	     -0.14966553	     -5.20637105	     -1.91373382	      5.11004528	    -49.91983590	     -1.31336857	     -1.95998069	      0.00000000	     27.24524239	      9.81789021	     10.79245344	    -22.11446130	      1.58156819	    -17.69490801	      0.00000000	    -14.59781006	     -7.67266454	      0.19950255
